# xmcd
#
# Track frame offsets:
#	150
#	22123
#	35498
#	54517
#	67351
#	87381
#	114754
#	130595
#	150039
#	167366
#	184492
#	211448
#	221463
#
# Disc length: 3252 seconds
#
# Revision: 0
# Processed by: cddbd v1.5.2PL0 Copyright (c) Steve Scherf et al.
# Submitted via: dBpowerAMP V4.0
#
DISCID=ae0cb20d
DTITLE=Briarose  - Intertwine
DYEAR=2000
DGENRE=Country
TTITLE0=Give Yourself to Love
TTITLE1=Old Fashioned Love
TTITLE2=Long Time
TTITLE3=Broken Hearted Lover
TTITLE4=Ain't No Ash Will Burn
TTITLE5=Old Love
TTITLE6=Rutabaga Boogie
TTITLE7=I Don't Wanna Set the World on Fire
TTITLE8=The Briar and the Rose
TTITLE9=The Other Ruby Slipper
TTITLE10=Circle Game
TTITLE11=NaCl
TTITLE12=Mexico, Mexico
EXTD=
EXTT0=
EXTT1=
EXTT2=
EXTT3=
EXTT4=
EXTT5=
EXTT6=
EXTT7=
EXTT8=
EXTT9=
EXTT10=
EXTT11=
EXTT12=
PLAYORDER=
